<svg width="550" height="600" viewBox="0 0 550 600" fill="none" xmlns="http://www.w3.org/2000/svg">
<path opacity="0.5" d="M280.482 510.359L317.304 600H0L36.8218 510.359H0L158.652 124.356L317.304 510.359H280.482Z" fill="#00BC71"/>
<g opacity="0.5">
<path d="M437.139 227.422H359.727V503.084H437.139V227.422Z" fill="#CCCCCC"/>
<path d="M396.396 417.952H359.727V434.168H396.396V417.952Z" fill="#202020"/>
<path d="M437.14 377.412H400.471V393.627H437.14V377.412Z" fill="#202020"/>
<path d="M396.396 336.872H359.727V353.087H396.396V336.872Z" fill="#202020"/>
<path d="M437.14 456.465H400.471V472.68H437.14V456.465Z" fill="#202020"/>
<path d="M550 166.208C550 207.151 527.591 242.42 494.589 261.473C474.625 294.309 437.956 316.2 396.805 316.2C354.024 316.2 316.54 292.688 296.984 258.23C266.833 238.771 246.869 204.719 246.869 166.208C246.869 130.128 264.389 98.1031 291.279 77.8338C306.354 32.8361 349.542 0 400.064 0C452.216 0 495.811 34.4577 510.071 81.4823C534.517 101.752 550 132.155 550 166.208Z" fill="#E77B54"/>
</g>
</svg>
