<svg width="183" height="45" viewBox="0 0 183 45" fill="none" xmlns="http://www.w3.org/2000/svg">
  <g clip-path="url(#clip0)">
    <path d="M14.4344 8.52215H0V0.108398H39.2572V8.52215H24.8228V44.7827H14.4344V8.52215Z" fill="black" />
    <path
      d="M73.539 44.7827L64.8455 32.3521H64.3534H55.2773V44.7827H44.8342V0.108398H64.2988C76.3274 0.108398 83.8727 6.29658 83.8727 16.3388C83.8727 23.0698 80.4828 27.9552 74.6325 30.4522L84.7475 44.837H73.539V44.7827ZM63.752 8.52215H55.2773V24.1012H63.752C70.0944 24.1012 73.3203 21.1699 73.3203 16.2845C73.3203 11.3991 70.0944 8.52215 63.752 8.52215Z"
      fill="black" />
    <path d="M130.074 0.108398H140.517V44.837H130.074V0.108398Z" fill="black" />
    <path d="M150.03 0.108398H160.474V36.369H183.055V44.7827H150.03V0.108398Z" fill="black" />
    <path d="M92.0741 45.0001L107.329 8.52246L122.529 45.0001H92.0741Z" fill="#00BC71" />
    <path d="M92.0741 36.532L107.329 0L122.529 36.532H92.0741Z" fill="#00BC71" />
  </g>
  <defs>
    <clipPath id="clip0">
      <rect width="183" height="45" fill="white" />
    </clipPath>
  </defs>
</svg>