<svg width="183" height="45" viewBox="0 0 183 45" fill="none" xmlns="http://www.w3.org/2000/svg">
<g clip-path="url(#clip0)">
<path d="M14.4344 8.52313H0V0.109375H39.2572V8.52313H24.8228V44.7837H14.4344V8.52313Z" fill="white"/>
<path d="M73.539 44.7837L64.8455 32.353H64.3534H55.2773V44.7837H44.8342V0.109375H64.2988C76.3274 0.109375 83.8727 6.29755 83.8727 16.3398C83.8727 23.0708 80.4828 27.9562 74.6325 30.4532L84.7475 44.838H73.539V44.7837ZM63.752 8.52313H55.2773V24.1021H63.752C70.0944 24.1021 73.3203 21.1709 73.3203 16.2855C73.3203 11.4001 70.0944 8.52313 63.752 8.52313Z" fill="white"/>
<path d="M130.074 0.109375H140.517V44.838H130.074V0.109375Z" fill="white"/>
<path d="M150.03 0.109375H160.474V36.3699H183.055V44.7837H150.03V0.109375Z" fill="white"/>
<path d="M92.0741 44.9992L107.329 8.52148L122.529 44.9992H92.0741Z" fill="#00BC71"/>
<path d="M92.0741 36.532L107.329 0L122.529 36.532H92.0741Z" fill="#00BC71"/>
</g>
<defs>
<clipPath id="clip0">
<rect width="183" height="45" fill="white"/>
</clipPath>
</defs>
</svg>
