<svg width="64" height="64" viewBox="0 0 64 64" fill="none" xmlns="http://www.w3.org/2000/svg">
<path d="M64 32C64 14.3251 49.6749 0 32 0C14.3251 0 0 14.3251 0 32C0 47.9751 11.7 61.2125 27 63.6125V41.25H18.8749V32H27V24.95C27 16.9312 31.7751 12.5 39.0875 12.5C42.5875 12.5 46.25 13.125 46.25 13.125V21H42.2125C38.2375 21 37 23.4688 37 26V32H45.8749L44.4563 41.25H37V63.6125C52.3 61.2125 64 47.9751 64 32Z" fill="#1877F2"/>
<path d="M44.4563 41.25L45.875 32H37.0001V26C37.0001 23.4688 38.2375 21 42.2126 21H46.2501V13.125C46.2501 13.125 42.5875 12.5 39.0875 12.5C31.7751 12.5 27.0001 16.9312 27.0001 24.95V32H18.875V41.25H27.0001V63.6125C28.6313 63.8688 30.3001 64 32.0001 64C33.7001 64 35.3689 63.8688 37.0001 63.6125V41.25H44.4563Z" fill="white"/>
</svg>
