<svg width="64" height="64" viewBox="0 0 64 64" fill="none" xmlns="http://www.w3.org/2000/svg">
<path d="M0 32C0 14.3269 14.3269 0 32 0C49.6731 0 64 14.3269 64 32C64 49.6731 49.6731 64 32 64C14.3269 64 0 49.6731 0 32Z" fill="#FF0000"/>
<path d="M48.3536 24.0976C47.9611 22.5896 46.8044 21.4021 45.3357 20.999C42.6741 20.2666 32.0003 20.2666 32.0003 20.2666C32.0003 20.2666 21.3264 20.2666 18.6646 20.999C17.1959 21.4021 16.0392 22.5896 15.6467 24.0976C14.9336 26.8307 14.9336 32.5333 14.9336 32.5333C14.9336 32.5333 14.9336 38.2357 15.6467 40.969C16.0392 42.477 17.1959 43.6645 18.6646 44.0677C21.3264 44.7999 32.0003 44.7999 32.0003 44.7999C32.0003 44.7999 42.6741 44.7999 45.3357 44.0677C46.8044 43.6645 47.9611 42.477 48.3536 40.969C49.0669 38.2357 49.0669 32.5333 49.0669 32.5333C49.0669 32.5333 49.0669 26.8307 48.3536 24.0976" fill="white"/>
<path d="M28.7998 38.4001V27.7334L37.3331 33.0669L28.7998 38.4001Z" fill="#FF0000"/>
</svg>
