<svg width="181" height="184" viewBox="0 0 181 184" fill="none" xmlns="http://www.w3.org/2000/svg">
<path d="M45.3471 54.0156H26.8975V119.489H45.3471V54.0156Z" fill="#CCCCCC"/>
<path d="M35.6368 99.2695H26.8975V103.121H35.6368V99.2695Z" fill="black"/>
<path d="M45.3471 89.6406H36.6078V93.492H45.3471V89.6406Z" fill="black"/>
<path d="M35.6368 80.0127H26.8975V83.8641H35.6368V80.0127Z" fill="black"/>
<path d="M45.3471 108.417H36.6078V112.268H45.3471V108.417Z" fill="black"/>
<path d="M72.2446 39.4767C72.2446 49.2015 66.904 57.5782 59.0386 62.1036C54.2806 69.9027 45.5413 75.102 35.7339 75.102C25.5381 75.102 16.6046 69.5175 11.9437 61.3333C4.75805 56.7117 0 48.6238 0 39.4767C0 30.9074 4.17543 23.3009 10.5842 18.4867C14.177 7.79906 24.47 0 36.5107 0C48.9399 0 59.3299 8.1842 62.7285 19.3532C68.5547 24.1675 72.2446 31.3888 72.2446 39.4767Z" fill="#00BC71"/>
<path d="M154.102 54.0156H135.653V119.489H154.102V54.0156Z" fill="#CCCCCC"/>
<path d="M144.392 99.2695H135.653V103.121H144.392V99.2695Z" fill="black"/>
<path d="M154.102 89.6406H145.363V93.492H154.102V89.6406Z" fill="black"/>
<path d="M144.392 80.0127H135.653V83.8641H144.392V80.0127Z" fill="black"/>
<path d="M154.102 108.417H145.363V112.268H154.102V108.417Z" fill="black"/>
<path d="M181 39.4767C181 49.2015 175.659 57.5782 167.794 62.1036C163.036 69.9027 154.297 75.102 144.489 75.102C134.293 75.102 125.36 69.5175 120.699 61.3333C113.513 56.7117 108.755 48.6238 108.755 39.4767C108.755 30.9074 112.931 23.3009 119.34 18.4867C122.932 7.79906 133.225 0 145.266 0C157.695 0 168.085 8.1842 171.484 19.3532C177.31 24.1675 181 31.3888 181 39.4767Z" fill="#00BC71"/>
<path d="M99.7248 118.526H81.2752V184H99.7248V118.526Z" fill="#CCCCCC"/>
<path d="M90.0145 163.779H81.2752V167.631H90.0145V163.779Z" fill="black"/>
<path d="M99.7248 154.151H90.9855V158.003H99.7248V154.151Z" fill="black"/>
<path d="M90.0145 144.523H81.2752V148.375H90.0145V144.523Z" fill="black"/>
<path d="M99.7248 172.928H90.9855V176.779H99.7248V172.928Z" fill="black"/>
<path d="M126.545 104.417C126.545 114.142 121.204 122.519 113.339 127.044C108.581 134.843 99.8414 140.042 90.034 140.042C79.8381 140.042 70.9047 134.458 66.2437 126.274C59.0581 121.652 54.3 113.564 54.3 104.417C54.3 95.8478 58.4755 88.2413 64.8843 83.4271C68.4771 72.7395 78.77 64.9404 90.8108 64.9404C103.24 64.9404 113.63 73.1246 117.029 84.2936C122.855 89.1079 126.545 96.3292 126.545 104.417Z" fill="#00BC71"/>
</svg>
