<svg width="211" height="183" viewBox="0 0 211 183" fill="none" xmlns="http://www.w3.org/2000/svg">
<path d="M10.6566 93.1053L0 34.2456L22.3788 72.7719L27.7071 7.49121L42.6263 80.2631L45.8232 50.2982C45.8232 50.2982 54.3485 80.2631 54.3485 79.193C54.3485 78.1228 68.202 21.4035 68.202 21.4035L70.3333 93.1053C70.3333 93.1053 53.2828 109.158 51.1515 109.158C49.0202 109.158 14.9192 105.947 14.9192 105.947L10.6566 93.1053Z" fill="#00BC71"/>
<path d="M151.323 85.614L140.667 26.7544L163.045 65.2807L168.374 0L183.293 72.7719L186.49 42.807C186.49 42.807 195.015 72.7719 195.015 71.7018C195.015 70.6316 208.869 13.9123 208.869 13.9123L211 85.614C211 85.614 193.949 101.667 191.818 101.667C189.687 101.667 155.586 98.4561 155.586 98.4561L151.323 85.614Z" fill="#00BC71"/>
<path d="M88.4495 166.947L77.7929 108.087L100.172 146.614L105.5 81.333L120.419 154.105L123.616 124.14C123.616 124.14 132.141 154.105 132.141 153.035C132.141 151.965 145.995 95.2453 145.995 95.2453L148.126 166.947C148.126 166.947 131.076 183 128.944 183C126.813 183 92.7121 179.789 92.7121 179.789L88.4495 166.947Z" fill="#00BC71"/>
</svg>
