<svg width="391" height="152" viewBox="0 0 391 152" fill="none" xmlns="http://www.w3.org/2000/svg">
<g clip-path="url(#clip0)">
<path d="M0 35.3803L39.8428 0L101.52 60.9578L142.151 21.8592L178.955 60.9578L136.861 34.5916L89.4776 75.9437C72.8201 53.7465 56.1626 31.5493 39.5052 9.35211C26.3368 18.0282 13.1684 26.7042 0 35.3803Z" fill="#B3B3B3"/>
<path d="M212.157 35.3803L252 0L313.678 60.9578L354.308 21.8592L391.112 60.9578L348.906 34.5916L301.522 75.9437C284.977 53.7465 268.32 31.5493 251.662 9.35211C238.494 18.0282 225.326 26.7042 212.157 35.3803Z" fill="#B3B3B3"/>
<path d="M122.68 111.324L162.523 75.9434L224.2 136.901L264.831 97.8025L301.635 136.901L259.541 110.535L212.157 151.887C195.5 129.69 178.842 107.493 162.185 85.2955C149.016 93.9715 135.848 102.648 122.68 111.324Z" fill="#B3B3B3"/>
</g>
<defs>
<clipPath id="clip0">
<rect width="391" height="152" fill="white"/>
</clipPath>
</defs>
</svg>
