<svg width="285" height="156" viewBox="0 0 285 156" fill="none" xmlns="http://www.w3.org/2000/svg">
<g clip-path="url(#clip0)">
<path d="M68.9857 3.62234C68.9857 3.62234 2.36954 -14.067 0.139712 29.6688C-2.09012 73.4045 99.3671 71.0366 121.247 50.9795C143.127 30.9223 94.7681 22.5652 89.4722 14.3473C84.037 5.85091 68.9857 3.62234 68.9857 3.62234Z" fill="#0AACC9"/>
<path d="M159.99 94.8538C159.99 94.8538 93.3741 77.1645 91.1442 120.9C88.9144 164.636 190.372 162.268 212.252 142.211C234.132 122.154 185.773 113.797 180.477 105.579C175.042 97.2216 159.99 94.8538 159.99 94.8538Z" fill="#0AACC9"/>
<path d="M227.164 3.62234C227.164 3.62234 160.548 -14.067 158.318 29.6688C156.088 73.4045 257.545 71.0366 279.425 50.9795C301.306 30.9223 252.946 22.5652 247.65 14.3473C242.354 5.85091 227.164 3.62234 227.164 3.62234Z" fill="#0AACC9"/>
</g>
<defs>
<clipPath id="clip0">
<rect width="285" height="156" fill="white"/>
</clipPath>
</defs>
</svg>
