<svg width="208" height="182" viewBox="0 0 208 182" fill="none" xmlns="http://www.w3.org/2000/svg">
<path d="M48.5708 46.9375H30.7207V112.074H48.5708V46.9375Z" fill="#754C24"/>
<path d="M78.3523 39.7526C79.5736 43.0095 80.2313 46.5537 80.2313 50.1937C80.2313 66.3821 67.3604 79.5053 51.4833 79.5053C47.4435 79.5053 43.5917 78.6432 40.1156 77.1105C36.6396 78.6432 32.7877 79.5053 28.748 79.5053C12.8708 79.5053 0 66.3821 0 50.1937C0 46.5537 0.657633 43.0095 1.87895 39.7526C0.657633 36.4958 0 32.9516 0 29.3116C0 13.1232 12.8708 0 28.748 0C32.7877 0 36.6396 0.862105 40.1156 2.39474C43.5917 0.862105 47.4435 0 51.4833 0C67.3604 0 80.2313 13.1232 80.2313 29.3116C80.2313 32.9516 79.5736 36.4958 78.3523 39.7526Z" fill="#00BC71"/>
<path d="M176.339 46.9375H158.489V112.074H176.339V46.9375Z" fill="#754C24"/>
<path d="M206.121 39.7526C207.342 43.0095 208 46.5537 208 50.1937C208 66.3821 195.129 79.5053 179.252 79.5053C175.212 79.5053 171.36 78.6432 167.884 77.1105C164.408 78.6432 160.556 79.5053 156.517 79.5053C140.639 79.5053 127.769 66.3821 127.769 50.1937C127.769 46.5537 128.426 43.0095 129.648 39.7526C128.426 36.4958 127.769 32.9516 127.769 29.3116C127.769 13.1232 140.639 0 156.517 0C160.556 0 164.408 0.862105 167.884 2.39474C171.36 0.862105 175.212 0 179.252 0C195.129 0 208 13.1232 208 29.3116C208 32.9516 207.342 36.4958 206.121 39.7526Z" fill="#00BC71"/>
<path d="M113.395 116.863H95.5449V182H113.395V116.863Z" fill="#754C24"/>
<path d="M143.177 109.678C144.398 112.935 145.055 116.479 145.055 120.119C145.055 136.308 132.185 149.431 116.308 149.431C112.268 149.431 108.416 148.569 104.94 147.036C101.464 148.569 97.6119 149.431 93.5722 149.431C77.695 149.431 64.8242 136.308 64.8242 120.119C64.8242 116.479 65.4819 112.935 66.7032 109.678C65.4819 106.422 64.8242 102.877 64.8242 99.2374C64.8242 83.0489 77.695 69.9258 93.5722 69.9258C97.6119 69.9258 101.464 70.7879 104.94 72.3205C108.416 70.7879 112.268 69.9258 116.308 69.9258C132.185 69.9258 145.055 83.0489 145.055 99.2374C145.055 102.877 144.398 106.422 143.177 109.678Z" fill="#00BC71"/>
</svg>
