<svg width="64" height="64" viewBox="0 0 64 64" fill="none" xmlns="http://www.w3.org/2000/svg">
<path d="M0 32C0 14.3269 14.3269 0 32 0C49.6731 0 64 14.3269 64 32C64 49.6731 49.6731 64 32 64C14.3269 64 0 49.6731 0 32Z" fill="white"/>
<path d="M45.9594 44.3068H18.001C16.9168 44.3068 16.0039 43.4224 16.0039 42.3097V22.1112C16.0039 21.0272 16.8883 20.1143 18.001 20.1143H45.9594C47.0435 20.1143 47.9564 20.9987 47.9564 22.1112V42.3097C47.9564 43.4224 47.072 44.3068 45.9594 44.3068Z" fill="#E3E3E3"/>
<path opacity="0.1" d="M19.9984 44.3069L31.952 34.6926L32.0376 34.1792L19.7131 25.3066L19.6846 43.879L19.9984 44.3069Z" fill="#231F20"/>
<path d="M18.001 44.3069C16.8883 44.3069 16.0039 43.4225 16.0039 42.3098V22.0828C16.0039 20.9702 16.8883 20.7705 18.001 20.7705C19.1136 20.7705 19.998 20.9988 19.998 22.0828V44.3069H18.001Z" fill="#D54B3D"/>
<path fill-rule="evenodd" clip-rule="evenodd" d="M16.0039 22.0828C16.0039 20.9988 16.8883 20.7705 18.001 20.7705C19.1136 20.7705 19.998 20.9702 19.998 22.0828V44.3069H18.001C16.8883 44.3069 16.0039 43.4225 16.0039 42.3098V22.0828ZM19.7126 22.0827C19.7126 21.4836 19.4273 21.0557 18.0009 21.0557C16.5745 21.0557 16.2891 21.4551 16.2891 22.0827V42.3097C16.2891 43.2512 17.0594 44.0215 18.0009 44.0215H19.7126V22.0827Z" fill="#D72B27"/>
<path d="M45.96 44.3069H43.9629V22.0258C43.9629 20.9132 44.8473 20.7705 45.96 20.7705C47.0725 20.7705 47.9569 20.9132 47.9569 22.0258V42.3384C47.9569 43.4225 47.0725 44.3069 45.96 44.3069Z" fill="#D54B3D"/>
<path fill-rule="evenodd" clip-rule="evenodd" d="M43.9629 22.0258C43.9629 20.9132 44.8473 20.7705 45.96 20.7705C47.0725 20.7705 47.9569 20.9132 47.9569 22.0258V42.3384C47.9569 43.451 47.0725 44.3354 45.96 44.3354H43.9629V22.0258ZM47.6716 22.0257C47.6716 21.3124 47.2436 21.0557 45.9599 21.0557C44.676 21.0557 44.2481 21.2839 44.2481 22.0257V44.05H45.9599C46.9013 44.05 47.6716 43.2797 47.6716 42.3383V22.0257Z" fill="#D72B27"/>
<path d="M37.4015 44.3067L16.1719 22.9123L17.2885 23.3664L32.0665 34.0077L47.9572 22.3555V42.3381C47.9572 43.4223 47.0728 44.3067 45.9601 44.3067H37.4015Z" fill="url(#paint0_linear)"/>
<path d="M31.9519 34.6924L16.86 23.7373C15.9756 23.0812 15.7189 21.8259 16.3751 20.9415C17.0312 20.0571 18.3151 19.8573 19.228 20.5135L31.9804 29.7855L44.8184 20.3995C45.7028 19.7432 46.9581 19.9429 47.6143 20.8559C48.2704 21.7403 48.0707 22.9956 47.1577 23.6517L31.9519 34.6924Z" fill="#D54B3D"/>
<path fill-rule="evenodd" clip-rule="evenodd" d="M44.7899 20.3709C45.1323 20.1141 45.5601 20 45.9596 20C46.5872 20 47.1863 20.2853 47.5857 20.8559C48.2133 21.7688 48.0137 22.9956 47.1293 23.6517L31.9519 34.7209L16.86 23.7373C15.9756 23.0811 15.7189 21.8259 16.3465 20.9415C16.7459 20.3995 17.3736 20.1141 18.0012 20.1141C18.4292 20.1141 18.8571 20.2283 19.1995 20.4849L31.9519 29.7569L44.7899 20.3709ZM47.3574 20.9984C47.0151 20.5419 46.5015 20.2852 45.9595 20.2852C45.5886 20.2852 45.2463 20.3994 44.9324 20.599L32.123 29.9851L31.9518 30.0991L31.7806 29.9851L19.0567 20.7416C18.7714 20.5134 18.4006 20.3994 18.0296 20.3994C17.4591 20.3994 16.917 20.6846 16.6032 21.1126C16.0611 21.8543 16.2608 22.9384 17.0311 23.509L31.9518 34.3499L46.9866 23.3948C47.7283 22.8243 47.8995 21.7687 47.3574 20.9984Z" fill="#D72B27"/>
<defs>
<linearGradient id="paint0_linear" x1="16.1731" y1="44.3093" x2="47.9675" y2="44.3093" gradientUnits="userSpaceOnUse">
<stop stop-opacity="0.1"/>
<stop offset="1" stop-opacity="0.2"/>
</linearGradient>
</defs>
</svg>
