<svg width="64" height="64" viewBox="0 0 64 64" fill="none" xmlns="http://www.w3.org/2000/svg">
<path d="M0 32C0 14.3269 14.3269 0 32 0C49.6731 0 64 14.3269 64 32C64 49.6731 49.6731 64 32 64C14.3269 64 0 49.6731 0 32Z" fill="white"/>
<mask id="mask0" mask-type="alpha" maskUnits="userSpaceOnUse" x="0" y="0" width="64" height="64">
<path fill-rule="evenodd" clip-rule="evenodd" d="M0 32C0 14.3269 14.3269 0 32 0C49.6731 0 64 14.3269 64 32C64 49.6731 49.6731 64 32 64C14.3269 64 0 49.6731 0 32Z" fill="white"/>
</mask>
<g mask="url(#mask0)">
<path fill-rule="evenodd" clip-rule="evenodd" d="M32.0019 14.9336C27.3668 14.9336 26.7851 14.9539 24.9646 15.0367C23.1477 15.1199 21.9075 15.4076 20.8224 15.8296C19.6999 16.2655 18.7477 16.8486 17.799 17.7976C16.8497 18.7463 16.2666 19.6984 15.8292 20.8206C15.4061 21.9061 15.1181 23.1467 15.0364 24.9629C14.9549 26.7833 14.9336 27.3654 14.9336 32.0004C14.9336 36.6355 14.9542 37.2154 15.0367 39.0359C15.1203 40.8528 15.4079 42.093 15.8296 43.1782C16.2659 44.3007 16.849 45.2528 17.798 46.2015C18.7463 47.1508 19.6984 47.7354 20.8202 48.1713C21.9061 48.5933 23.1467 48.881 24.9632 48.9642C26.7837 49.047 27.365 49.0673 31.9997 49.0673C36.6352 49.0673 37.2151 49.047 39.0355 48.9642C40.8524 48.881 42.0941 48.5933 43.1799 48.1713C44.3021 47.7354 45.2528 47.1508 46.2011 46.2015C47.1505 45.2528 47.7336 44.3007 48.1709 43.1785C48.5905 42.093 48.8785 40.8524 48.9638 39.0362C49.0456 37.2158 49.0669 36.6355 49.0669 32.0004C49.0669 27.3654 49.0456 26.7837 48.9638 24.9632C48.8785 23.1463 48.5905 21.9061 48.1709 20.8209C47.7336 19.6984 47.1505 18.7463 46.2011 17.7976C45.2518 16.8483 44.3024 16.2652 43.1789 15.8296C42.0909 15.4076 40.85 15.1199 39.033 15.0367C37.2126 14.9539 36.633 14.9336 31.9965 14.9336H32.0019ZM31.4327 18.0091H31.4329L32.0018 18.0093C36.5586 18.0093 37.0987 18.0257 38.8982 18.1074C40.5622 18.1835 41.4653 18.4616 42.0669 18.6952C42.8634 19.0045 43.4312 19.3743 44.0282 19.9716C44.6255 20.569 44.9953 21.1379 45.3054 21.9343C45.539 22.5352 45.8174 23.4383 45.8931 25.1024C45.9749 26.9015 45.9927 27.4419 45.9927 31.9967C45.9927 36.5514 45.9749 37.0918 45.8931 38.8909C45.817 40.555 45.539 41.4581 45.3054 42.059C44.996 42.8554 44.6255 43.4226 44.0282 44.0195C43.4309 44.6169 42.8637 44.9867 42.0669 45.296C41.466 45.5307 40.5622 45.808 38.8982 45.8841C37.0991 45.9659 36.5586 45.9836 32.0018 45.9836C27.4446 45.9836 26.9045 45.9659 25.1053 45.8841C23.4413 45.8073 22.5382 45.5292 21.9362 45.2956C21.1398 44.9863 20.5709 44.6165 19.9735 44.0192C19.3762 43.4218 19.0064 42.8544 18.6964 42.0576C18.4628 41.4567 18.1844 40.5535 18.1086 38.8895C18.0269 37.0904 18.0105 36.5499 18.0105 31.9924C18.0105 27.4348 18.0269 26.8972 18.1086 25.0981C18.1847 23.4341 18.4628 22.531 18.6964 21.9293C19.0057 21.1329 19.3762 20.564 19.9735 19.9667C20.5709 19.3693 21.1398 18.9995 21.9362 18.6895C22.5378 18.4548 23.4413 18.1775 25.1053 18.101C26.6797 18.0299 27.2899 18.0086 30.4707 18.005V18.0093C30.7679 18.0088 31.0876 18.009 31.4327 18.0091ZM39.0639 22.8903C39.0639 21.7593 39.9813 20.843 41.112 20.843V20.8423C42.2426 20.8423 43.16 21.7597 43.16 22.8903C43.16 24.021 42.2426 24.9384 41.112 24.9384C39.9813 24.9384 39.0639 24.021 39.0639 22.8903ZM32.0014 23.2358C27.1613 23.236 23.2372 27.1603 23.2372 32.0004C23.2372 36.8406 27.1615 40.7631 32.0017 40.7631C36.8419 40.7631 40.7648 36.8406 40.7648 32.0004C40.7648 27.1602 36.8416 23.2358 32.0014 23.2358ZM37.6906 32.0004C37.6906 28.8583 35.1434 26.3114 32.0017 26.3114C28.8596 26.3114 26.3128 28.8583 26.3128 32.0004C26.3128 35.1421 28.8596 37.6893 32.0017 37.6893C35.1434 37.6893 37.6906 35.1421 37.6906 32.0004Z" fill="black"/>
</g>
</svg>
