<svg width="64" height="64" viewBox="0 0 64 64" fill="none" xmlns="http://www.w3.org/2000/svg">
<path d="M32 64C49.6731 64 64 49.6731 64 32C64 14.3269 49.6731 0 32 0C14.3269 0 0 14.3269 0 32C0 49.6731 14.3269 64 32 64Z" fill="url(#paint0_linear)"/>
<path d="M11.9175 33.5652C15.6583 31.5046 19.834 29.7849 23.7356 28.0564C30.4479 25.2252 37.1868 22.443 43.9937 19.8529C45.3181 19.4116 47.6977 18.98 47.9311 20.9426C47.8033 23.7208 47.2777 26.4826 46.9172 29.2445C46.0021 35.3181 44.9445 41.3709 43.9132 47.4245C43.5579 49.4409 41.0319 50.4848 39.4156 49.1944C35.5313 46.5706 31.6172 43.9725 27.7825 41.288C26.5264 40.0116 27.6912 38.1786 28.8131 37.2672C32.0123 34.1144 35.4051 31.4357 38.4371 28.12C39.2549 26.1449 36.8384 27.8094 36.0413 28.3194C31.6616 31.3376 27.3891 34.54 22.7715 37.1925C20.4128 38.4909 17.6637 37.3813 15.3061 36.6568C13.1923 35.7816 10.0946 34.8998 11.9173 33.5653L11.9175 33.5652Z" fill="white"/>
<defs>
<linearGradient id="paint0_linear" x1="24.0037" y1="2.6688" x2="8.00373" y2="40" gradientUnits="userSpaceOnUse">
<stop stop-color="#37AEE2"/>
<stop offset="1" stop-color="#1E96C8"/>
</linearGradient>
</defs>
</svg>
