<svg width="64" height="64" viewBox="0 0 64 64" fill="none" xmlns="http://www.w3.org/2000/svg">
<path d="M0 32C0 14.3269 14.3269 0 32 0C49.6731 0 64 14.3269 64 32C64 49.6731 49.6731 64 32 64C14.3269 64 0 49.6731 0 32Z" fill="#55ACEE"/>
<path d="M31.9303 26.3657L31.9974 27.4729L30.8783 27.3374C26.8045 26.8176 23.2455 25.055 20.2238 22.0948L18.7465 20.6259L18.366 21.7106C17.5602 24.1285 18.075 26.682 19.7537 28.3994C20.6491 29.3485 20.4476 29.4841 18.9032 28.9192C18.366 28.7384 17.8959 28.6028 17.8512 28.6706C17.6945 28.8288 18.2317 30.8851 18.657 31.6987C19.2389 32.8285 20.4252 33.9358 21.7235 34.5911L22.8203 35.1109L21.522 35.1335C20.2686 35.1335 20.2238 35.1561 20.3581 35.6306C20.8058 37.0994 22.574 38.6587 24.5438 39.3366L25.9315 39.8111L24.7228 40.5342C22.9322 41.5737 20.8281 42.1612 18.7241 42.2064C17.7169 42.229 16.8887 42.3194 16.8887 42.3872C16.8887 42.6132 19.6194 43.8787 21.2087 44.3758C25.9763 45.8446 31.6393 45.2119 35.8921 42.7036C38.9139 40.9184 41.9356 37.3706 43.3458 33.9358C44.1068 32.1054 44.8678 28.761 44.8678 27.1566C44.8678 26.1171 44.935 25.9815 46.1885 24.7387C46.9271 24.0155 47.621 23.2246 47.7553 22.9987C47.9791 22.5693 47.9567 22.5693 46.8152 22.9535C44.9126 23.6314 44.644 23.541 45.5841 22.5241C46.278 21.801 47.1062 20.4903 47.1062 20.1062C47.1062 20.0384 46.7704 20.1514 46.3899 20.3548C45.987 20.5807 45.0917 20.9197 44.4202 21.1231L43.2115 21.5072L42.1147 20.7615C41.5103 20.3548 40.6598 19.9028 40.2121 19.7672C39.0706 19.4509 37.3247 19.4961 36.295 19.8576C33.4971 20.8745 31.7288 23.4958 31.9303 26.3657Z" fill="white"/>
</svg>
