<svg width="64" height="64" viewBox="0 0 64 64" fill="none" xmlns="http://www.w3.org/2000/svg">
<path d="M32 -1.90735e-06C49.6731 -1.90735e-06 64 14.3269 64 32C64 49.6731 49.6731 64 32 64C14.3269 64 0 49.6731 0 32C0 14.3269 14.3269 -1.90735e-06 32 -1.90735e-06Z" fill="#7F4DA0"/>
<path d="M40.5252 27.9449C40.3695 26.6804 39.9809 25.6876 39.2907 24.8082C38.3945 23.6758 37.2493 22.9978 35.5537 22.5955C34.4487 22.3274 34.0023 22.3582 33.6026 22.7233C33.2304 23.0653 33.1577 23.7509 33.4422 24.1949C33.6422 24.5172 33.873 24.6326 34.5149 24.7586C35.3697 24.9159 35.9605 25.12 36.4979 25.4273C37.6384 26.0859 38.1696 27.1165 38.2265 28.7849C38.2531 29.5683 38.3207 29.8092 38.5943 30.087C39.1015 30.5949 40.004 30.4961 40.3869 29.8883C40.5274 29.6593 40.5488 29.5595 40.5636 29.0276C40.5734 28.6983 40.5593 28.2081 40.5252 27.9449V27.9449Z" fill="white"/>
<path d="M44.993 29.37C44.7678 25.4961 43.2526 22.3795 40.5409 20.1866C39.013 18.9545 37.1662 18.1072 35.1419 17.6952C34.4004 17.5478 33.0351 17.4284 32.8008 17.4967C32.5798 17.56 32.2672 17.7993 32.1279 18.0157C31.9805 18.2504 31.9473 18.7744 32.073 19.0775C32.2759 19.5842 32.6533 19.7632 33.7103 19.8557C35.3398 19.9983 37.0204 20.5708 38.2903 21.4183C39.7401 22.3833 40.8926 23.7031 41.6381 25.2541C42.2823 26.5867 42.6785 28.5071 42.6675 30.2268C42.6638 30.8488 42.7599 31.2 43.01 31.4568C43.3876 31.8517 43.9379 31.938 44.4236 31.6757C44.9619 31.3927 45.0878 30.8957 44.993 29.37V29.37Z" fill="white"/>
<path d="M49.9365 44.2882C49.8607 44.0667 49.6839 43.7252 49.5576 43.5291C48.7618 42.3274 44.4862 38.9814 42.3515 37.8871C41.1326 37.2609 40.2295 37.0522 39.56 37.2482C38.84 37.4507 38.4611 37.7859 37.2548 39.285C36.7685 39.8859 36.2696 40.4488 36.137 40.5373C35.8085 40.765 35.1644 40.9485 34.7096 40.9485C33.6549 40.9421 31.7413 40.259 30.2698 39.3608C29.1267 38.6652 27.6615 37.4191 26.5373 36.1857C25.211 34.7372 24.3079 33.4595 23.5942 32.0174C22.6722 30.1641 22.4385 29.0319 22.8237 28.2033C22.9184 27.9946 23.0448 27.7732 23.1015 27.7036C23.1584 27.6404 23.7521 27.1533 24.4089 26.622C25.6973 25.5974 25.9057 25.3633 26.1457 24.6612C26.4488 23.7693 26.3668 22.8585 25.8994 21.9414C25.5394 21.2456 24.5984 19.7276 23.9163 18.7472C23.0132 17.457 20.7648 14.6992 20.3164 14.3259C19.508 13.6681 18.4723 13.5542 17.3291 13.9971C16.1229 14.4651 13.8619 16.2868 12.8956 17.5581C12.024 18.7093 11.6894 19.5252 11.6388 20.6005C11.5946 21.486 11.6704 21.8528 12.1378 22.9851C15.7945 31.8655 21.2511 38.956 28.7477 44.5855C32.6634 47.5266 36.7243 49.7658 40.9368 51.2965C43.3935 52.1883 44.4609 52.2325 45.7177 51.4989C46.2481 51.1826 47.5618 49.8353 48.2944 48.855C49.507 47.223 49.9554 46.4704 50.0817 45.8695C50.1702 45.4583 50.1007 44.7436 49.9365 44.2882V44.2882Z" fill="white"/>
<path d="M49.5406 30.26C49.4597 28.0687 49.0907 26.2714 48.3214 24.2675C47.5619 22.2963 46.7933 21.01 45.3416 19.2702C43.9691 17.639 42.903 16.7076 41.2123 15.6708C38.8535 14.2263 35.9829 13.2704 32.7658 12.8683C31.6687 12.7278 31.4205 12.7379 31.0839 12.9625C30.4316 13.3879 30.4403 14.4491 31.0946 14.8681C31.3112 15.0015 31.5034 15.05 32.381 15.1649C33.7282 15.3463 34.5944 15.5172 35.6223 15.7976C39.653 16.8995 42.7526 19.1517 44.8249 22.495C46.559 25.2816 47.2789 28.0685 47.1767 31.6278C47.1411 32.831 47.1669 33.0428 47.3509 33.3319C47.7031 33.8708 48.6321 33.9773 49.1086 33.5302C49.4051 33.2577 49.461 33.0531 49.5194 32.0232C49.5474 31.486 49.5534 30.6929 49.5406 30.26V30.26Z" fill="white"/>
</svg>
