<svg width="64" height="64" viewBox="0 0 64 64" fill="none" xmlns="http://www.w3.org/2000/svg">
<mask id="mask0" mask-type="alpha" maskUnits="userSpaceOnUse" x="0" y="0" width="64" height="64">
<path fill-rule="evenodd" clip-rule="evenodd" d="M0 32C0 14.3269 14.3269 0 32 0C49.6731 0 64 14.3269 64 32C64 49.6731 49.6731 64 32 64C14.3269 64 0 49.6731 0 32Z" fill="white"/>
</mask>
<g mask="url(#mask0)">
<path fill-rule="evenodd" clip-rule="evenodd" d="M22.1764 0H41.8236C59.7544 0 64 4.24558 64 22.1764V41.8236C64 59.7544 59.7544 64 41.8236 64H22.1764C4.24559 64 0 59.7544 0 41.8236V22.1764C0 4.24558 4.24559 0 22.1764 0Z" fill="#4680C2"/>
<path fill-rule="evenodd" clip-rule="evenodd" d="M52.3099 21.3171C52.626 20.3235 52.3099 19.6009 50.9098 19.6009H46.2576C45.0834 19.6009 44.5414 20.2331 44.2252 20.9107C44.2252 20.9107 41.8314 26.6919 38.4891 30.4406C37.4051 31.5246 36.9083 31.8859 36.3212 31.8859C36.005 31.8859 35.5986 31.5246 35.5986 30.531V21.2719C35.5986 20.0977 35.2372 19.5557 34.2435 19.5557H26.9267C26.204 19.5557 25.7524 20.0977 25.7524 20.6397C25.7524 21.7689 27.4235 22.0398 27.6042 25.2014V32.0666C27.6042 33.5571 27.3332 33.8281 26.746 33.8281C25.1652 33.8281 21.3262 28.0017 19.0227 21.3623C18.571 20.0525 18.1194 19.5557 16.9451 19.5557H12.2478C10.8928 19.5557 10.667 20.1881 10.667 20.8655C10.667 22.085 12.2478 28.2275 18.029 36.3574C21.8682 41.9127 27.3332 44.8937 32.2563 44.8937C35.2372 44.8937 35.5986 44.2162 35.5986 43.0871V38.8867C35.5986 37.5317 35.8695 37.3059 36.818 37.3059C37.4955 37.3059 38.715 37.6671 41.47 40.3319C44.6316 43.4935 45.1736 44.9389 46.9351 44.9389H51.5872C52.9422 44.9389 53.5746 44.2614 53.2132 42.9515C52.8067 41.6418 51.2711 39.7449 49.2838 37.4865C48.1998 36.2219 46.5738 34.8218 46.077 34.1442C45.3995 33.241 45.5802 32.8797 46.077 32.0666C46.0319 32.0666 51.7227 24.0271 52.3099 21.3171Z" fill="white"/>
</g>
</svg>
