<svg width="64" height="64" viewBox="0 0 64 64" fill="none" xmlns="http://www.w3.org/2000/svg">
<path d="M32 64C49.6731 64 64 49.6731 64 32C64 14.3269 49.6731 0 32 0C14.3269 0 0 14.3269 0 32C0 49.6731 14.3269 64 32 64Z" fill="#25D366"/>
<path fill-rule="evenodd" clip-rule="evenodd" d="M33.0553 49.8034H33.0474C29.8628 49.8023 26.7336 49.0033 23.9543 47.4873L13.8672 50.1334L16.5667 40.2732C14.9015 37.3874 14.0253 34.114 14.0267 30.7604C14.0309 20.269 22.5669 11.7334 33.0551 11.7334C38.1454 11.7356 42.9229 13.7172 46.5155 17.3139C50.108 20.9105 52.0854 25.6912 52.0834 30.7754C52.0792 41.2644 43.5465 49.7991 33.0553 49.8034ZM24.4217 44.0425L24.9992 44.3852C27.4275 45.8262 30.211 46.5887 33.0489 46.5898H33.0553C41.7723 46.5898 48.8671 39.4948 48.8706 30.7742C48.8722 26.5482 47.2288 22.5747 44.2428 19.5853C41.2568 16.5958 37.2859 14.9487 33.0616 14.9472C24.3378 14.9472 17.2429 22.0414 17.2395 30.7614C17.2382 33.7498 18.0744 36.6601 19.6575 39.1782L20.0336 39.7765L18.4359 45.6127L24.4217 44.0425ZM41.9905 34.8721C42.3221 35.0324 42.546 35.1406 42.6417 35.3002C42.7605 35.4985 42.7605 36.4504 42.3645 37.5612C41.9681 38.6717 40.0687 39.6854 39.1551 39.8218C38.3361 39.9443 37.2995 39.9954 36.1606 39.6334C35.47 39.4143 34.5844 39.1218 33.4501 38.6319C28.9928 36.7073 25.9806 32.3872 25.4114 31.5707C25.3715 31.5136 25.3436 31.4735 25.328 31.4528L25.3242 31.4476C25.0726 31.1119 23.3866 28.8625 23.3866 26.5344C23.3866 24.3444 24.4624 23.1964 24.9576 22.6681C24.9915 22.6319 25.0227 22.5986 25.0507 22.568C25.4865 22.092 26.0016 21.973 26.3185 21.973C26.6355 21.973 26.9528 21.976 27.2298 21.9899C27.264 21.9916 27.2995 21.9914 27.3363 21.9912C27.6133 21.9896 27.9588 21.9875 28.2995 22.806C28.4306 23.121 28.6224 23.588 28.8247 24.0806C29.2339 25.0766 29.6859 26.1771 29.7654 26.3363C29.8843 26.5743 29.9635 26.8519 29.8051 27.1693C29.7813 27.2169 29.7593 27.2618 29.7382 27.3048C29.6192 27.5478 29.5317 27.7265 29.3296 27.9624C29.2502 28.0552 29.1681 28.1551 29.086 28.2551C28.9224 28.4543 28.7589 28.6535 28.6164 28.7954C28.3784 29.0325 28.1306 29.2897 28.408 29.7657C28.6853 30.2417 29.6395 31.7986 31.0529 33.0594C32.5723 34.4146 33.8928 34.9874 34.5622 35.2777C34.6929 35.3344 34.7988 35.3803 34.8764 35.4192C35.3517 35.6573 35.6291 35.6174 35.9064 35.3002C36.1838 34.9829 37.095 33.9119 37.4119 33.4359C37.7288 32.9601 38.0459 33.0394 38.4816 33.198C38.9175 33.3568 41.255 34.5069 41.7305 34.7448C41.8233 34.7913 41.9101 34.8332 41.9905 34.8721Z" fill="#FDFDFD"/>
</svg>
